<svg width="100" height="100" viewBox="0 0 100 100" fill="none" xmlns="http://www.w3.org/2000/svg">
<g id="Currancy Converter">
<g id="Frame 2">
<rect x="4" y="4" width="50" height="50" rx="25" fill="#5951BB"/>
<path id="$" d="M27.6236 43.9091V14.8182H29.4872V43.9091H27.6236ZM33.4531 23.8409C33.3319 22.7652 32.8319 21.9318 31.9531 21.3409C31.0743 20.7424 29.9683 20.4432 28.6349 20.4432C27.6804 20.4432 26.8546 20.5947 26.1577 20.8977C25.4607 21.1932 24.919 21.6023 24.5327 22.125C24.1539 22.6402 23.9645 23.2273 23.9645 23.8864C23.9645 24.4394 24.0933 24.9167 24.3509 25.3182C24.616 25.7197 24.9607 26.0568 25.3849 26.3295C25.8168 26.5947 26.2789 26.8182 26.7713 27C27.2637 27.1742 27.7372 27.3182 28.1918 27.4318L30.4645 28.0227C31.2069 28.2045 31.9683 28.4508 32.7486 28.7614C33.5289 29.072 34.2524 29.4811 34.919 29.9886C35.5857 30.4962 36.1236 31.125 36.5327 31.875C36.9493 32.625 37.1577 33.5227 37.1577 34.5682C37.1577 35.8864 36.8168 37.0568 36.1349 38.0795C35.4607 39.1023 34.4796 39.9091 33.1918 40.5C31.9115 41.0909 30.3622 41.3864 28.544 41.3864C26.8016 41.3864 25.294 41.1098 24.0213 40.5568C22.7486 40.0038 21.7524 39.2197 21.0327 38.2045C20.313 37.1818 19.9152 35.9697 19.8395 34.5682H23.3622C23.4304 35.4091 23.7031 36.1098 24.1804 36.6705C24.6652 37.2235 25.2827 37.6364 26.0327 37.9091C26.7902 38.1742 27.6198 38.3068 28.5213 38.3068C29.5137 38.3068 30.3963 38.1515 31.169 37.8409C31.9493 37.5227 32.563 37.0833 33.0099 36.5227C33.4569 35.9545 33.6804 35.2917 33.6804 34.5341C33.6804 33.8447 33.4834 33.2803 33.0895 32.8409C32.7031 32.4015 32.1766 32.0379 31.5099 31.75C30.8509 31.4621 30.1046 31.2083 29.2713 30.9886L26.5213 30.2386C24.6577 29.7311 23.1804 28.9848 22.0895 28C21.0062 27.0152 20.4645 25.7121 20.4645 24.0909C20.4645 22.75 20.8281 21.5795 21.5554 20.5795C22.2827 19.5795 23.2675 18.803 24.5099 18.25C25.7524 17.6894 27.1539 17.4091 28.7145 17.4091C30.2902 17.4091 31.6804 17.6856 32.8849 18.2386C34.0971 18.7917 35.0516 19.553 35.7486 20.5227C36.4456 21.4848 36.8092 22.5909 36.8395 23.8409H33.4531Z" fill="white"/>
</g>
<g id="Frame 3">
<rect x="45" y="45" width="50" height="50" rx="25" fill="#5951BB"/>
<path id="&#226;&#130;&#190;" d="M72.6435 71.4773H70.0866V58.7273H72.6435V71.4773ZM67.9389 71.4773H65.3821V58.7273H67.9389V71.4773ZM59.5753 82V79.0568H78.3139V82H59.5753ZM69.1094 81.1136C67.1473 81.1136 65.4503 80.6705 64.0185 79.7841C62.5866 78.8977 61.4806 77.6932 60.7003 76.1705C59.9276 74.6402 59.5412 72.9129 59.5412 70.9886C59.5412 68.9962 59.9427 67.2689 60.7457 65.8068C61.5488 64.3447 62.6624 63.2159 64.0866 62.4205C65.5109 61.6174 67.151 61.2159 69.0071 61.2159C70.8783 61.2159 72.526 61.6288 73.9503 62.4545C75.3821 63.2803 76.4957 64.4621 77.2912 66C78.0942 67.5303 78.4957 69.3561 78.4957 71.4773H75.0753C75.0829 69.8258 74.8291 68.4659 74.3139 67.3977C73.8063 66.3295 73.0942 65.5417 72.1776 65.0341C71.2685 64.5189 70.2116 64.2614 69.0071 64.2614C67.848 64.2614 66.8101 64.5152 65.8935 65.0227C64.9844 65.5303 64.2647 66.3106 63.7344 67.3636C63.2116 68.4091 62.9503 69.7424 62.9503 71.3636C62.9503 72.8788 63.2041 74.2159 63.7116 75.375C64.2192 76.5265 64.9768 77.428 65.9844 78.0795C66.9995 78.7311 68.2647 79.0568 69.7798 79.0568L69.1094 81.1136ZM62.7003 79.0568L62.7912 78.7841H63.3935L63.3253 79.0568H62.7003Z" fill="white"/>
</g>
<path id="Vector 1" d="M15.2467 58.4741C15.7847 57.5094 15.4388 56.2913 14.4741 55.7533C13.5094 55.2153 12.2913 55.5612 11.7533 56.5259L15.2467 58.4741ZM41.3043 82.3629C41.7808 81.3664 41.3594 80.1723 40.3629 79.6957L24.1245 71.9295C23.128 71.453 21.9339 71.8744 21.4573 72.8709C20.9807 73.8674 21.4022 75.0615 22.3987 75.5381L36.8328 82.4414L29.9295 96.8755C29.453 97.872 29.8744 99.0661 30.8709 99.5427C31.8674 100.019 33.0615 99.5978 33.5381 98.6013L41.3043 82.3629ZM11.7533 56.5259C8.02973 63.2026 6.57321 68.7592 7.06649 73.2795C7.57331 77.9238 10.1102 81.2086 13.7028 83.2408C17.2123 85.226 21.6805 86.0028 26.2552 85.9373C30.8551 85.8715 35.7262 84.9529 40.1656 83.386L38.8344 79.614C34.7738 81.0471 30.3324 81.8785 26.1979 81.9377C22.0383 81.9972 18.3502 81.274 15.6722 79.7592C13.0773 78.2914 11.3954 76.0762 11.0429 72.8455C10.6768 69.4908 11.7203 64.7974 15.2467 58.4741L11.7533 56.5259Z" fill="#5951BB"/>
<path id="Vector 2" d="M84.2533 41.467C83.7153 42.4317 84.0612 43.6498 85.0259 44.1878C85.9906 44.7258 87.2087 44.3799 87.7467 43.4152L84.2533 41.467ZM58.1957 17.5782C57.7192 18.5747 58.1406 19.7688 59.1371 20.2454L75.3755 28.0116C76.372 28.4881 77.5661 28.0667 78.0427 27.0702C78.5193 26.0737 78.0978 24.8796 77.1013 24.403L62.6672 17.4997L69.5705 3.0656C70.047 2.06913 69.6256 0.874989 68.6291 0.398416C67.6326 -0.0781565 66.4385 0.343304 65.9619 1.33977L58.1957 17.5782ZM87.7467 43.4152C91.4703 36.7385 92.9268 31.1819 92.4335 26.6616C91.9267 22.0173 89.3898 18.7325 85.7972 16.7003C82.2877 14.7151 77.8195 13.9383 73.2448 14.0038C68.6449 14.0696 63.7738 14.9882 59.3344 16.5551L60.6656 20.3271C64.7262 18.894 69.1676 18.0626 73.3021 18.0034C77.4617 17.9439 81.1498 18.6671 83.8278 20.1819C86.4227 21.6497 88.1046 23.8649 88.4571 27.0956C88.8232 30.4503 87.7797 35.1437 84.2533 41.467L87.7467 43.4152Z" fill="#5951BB"/>
</g>
</svg>
